<mxfile host="www.draw.io" modified="2019-12-11T13:40:34.458Z" agent="Mozilla/5.0 (Windows NT 10.0; Win64; x64) AppleWebKit/537.36 (KHTML, like Gecko) Chrome/74.0.3729.169 Safari/537.36" etag="wtjNWhNVkwnhoLa71n58" version="12.3.9" type="github" pages="1">
  <diagram id="adMyBay1lu6xidjCouD3" name="EM">
    <mxGraphModel dx="3085" dy="1792" grid="1" gridSize="10" guides="1" tooltips="1" connect="1" arrows="1" fold="1" page="1" pageScale="1" pageWidth="850" pageHeight="1100" math="0" shadow="0">
      <root>
        <mxCell id="0"/>
        <mxCell id="1" parent="0"/>
        <mxCell id="1QQ3cwLplbujhVV3ZzxS-13" value="DataForwarder" style="swimlane;fontStyle=1;align=center;verticalAlign=top;childLayout=stackLayout;horizontal=1;startSize=26;horizontalStack=0;resizeParent=1;resizeParentMax=0;resizeLast=0;collapsible=1;marginBottom=0;" parent="1" vertex="1">
          <mxGeometry x="-380" y="135" width="350" height="140" as="geometry"/>
        </mxCell>
        <mxCell id="1QQ3cwLplbujhVV3ZzxS-15" value="" style="line;strokeWidth=1;fillColor=none;align=left;verticalAlign=middle;spacingTop=-1;spacingLeft=3;spacingRight=3;rotatable=0;labelPosition=right;points=[];portConstraint=eastwest;" parent="1QQ3cwLplbujhVV3ZzxS-13" vertex="1">
          <mxGeometry y="26" width="350" height="10" as="geometry"/>
        </mxCell>
        <mxCell id="1QQ3cwLplbujhVV3ZzxS-16" value="+ DataBuffer()" style="text;strokeColor=none;fillColor=none;align=left;verticalAlign=top;spacingLeft=4;spacingRight=4;overflow=hidden;rotatable=0;points=[[0,0.5],[1,0.5]];portConstraint=eastwest;" parent="1QQ3cwLplbujhVV3ZzxS-13" vertex="1">
          <mxGeometry y="36" width="350" height="26" as="geometry"/>
        </mxCell>
        <mxCell id="sXvjfolYUnGrp_yOVfev-58" value="+ onNewData(sender : object, args DataEventArgs)" style="text;strokeColor=none;fillColor=none;align=left;verticalAlign=top;spacingLeft=4;spacingRight=4;overflow=hidden;rotatable=0;points=[[0,0.5],[1,0.5]];portConstraint=eastwest;fontSize=12;" parent="1QQ3cwLplbujhVV3ZzxS-13" vertex="1">
          <mxGeometry y="62" width="350" height="26" as="geometry"/>
        </mxCell>
        <mxCell id="1QQ3cwLplbujhVV3ZzxS-124" value="- updateActivities() : void&#xa;" style="text;strokeColor=none;fillColor=none;align=left;verticalAlign=top;spacingLeft=4;spacingRight=4;overflow=hidden;rotatable=0;points=[[0,0.5],[1,0.5]];portConstraint=eastwest;" parent="1QQ3cwLplbujhVV3ZzxS-13" vertex="1">
          <mxGeometry y="88" width="350" height="26" as="geometry"/>
        </mxCell>
        <mxCell id="1QQ3cwLplbujhVV3ZzxS-125" value="- dataHandling(data : DataEntry, configs IConfigContainer)" style="text;strokeColor=none;fillColor=none;align=left;verticalAlign=top;spacingLeft=4;spacingRight=4;overflow=hidden;rotatable=0;points=[[0,0.5],[1,0.5]];portConstraint=eastwest;" parent="1QQ3cwLplbujhVV3ZzxS-13" vertex="1">
          <mxGeometry y="114" width="350" height="26" as="geometry"/>
        </mxCell>
        <mxCell id="1QQ3cwLplbujhVV3ZzxS-24" value="DataEntry" style="swimlane;fontStyle=1;align=center;verticalAlign=top;childLayout=stackLayout;horizontal=1;startSize=26;horizontalStack=0;resizeParent=1;resizeParentMax=0;resizeLast=0;collapsible=1;marginBottom=0;" parent="1" vertex="1">
          <mxGeometry x="-355" y="-140" width="300" height="112" as="geometry"/>
        </mxCell>
        <mxCell id="1QQ3cwLplbujhVV3ZzxS-25" value="+ gyroscopeData : double" style="text;strokeColor=none;fillColor=none;align=left;verticalAlign=top;spacingLeft=4;spacingRight=4;overflow=hidden;rotatable=0;points=[[0,0.5],[1,0.5]];portConstraint=eastwest;" parent="1QQ3cwLplbujhVV3ZzxS-24" vertex="1">
          <mxGeometry y="26" width="300" height="26" as="geometry"/>
        </mxCell>
        <mxCell id="1QQ3cwLplbujhVV3ZzxS-28" value="+ acceleratorData : double" style="text;strokeColor=none;fillColor=none;align=left;verticalAlign=top;spacingLeft=4;spacingRight=4;overflow=hidden;rotatable=0;points=[[0,0.5],[1,0.5]];portConstraint=eastwest;" parent="1QQ3cwLplbujhVV3ZzxS-24" vertex="1">
          <mxGeometry y="52" width="300" height="26" as="geometry"/>
        </mxCell>
        <mxCell id="1QQ3cwLplbujhVV3ZzxS-26" value="" style="line;strokeWidth=1;fillColor=none;align=left;verticalAlign=middle;spacingTop=-1;spacingLeft=3;spacingRight=3;rotatable=0;labelPosition=right;points=[];portConstraint=eastwest;" parent="1QQ3cwLplbujhVV3ZzxS-24" vertex="1">
          <mxGeometry y="78" width="300" height="8" as="geometry"/>
        </mxCell>
        <mxCell id="1QQ3cwLplbujhVV3ZzxS-27" value="+ DataEntry(gyro : double, accelerator : double)" style="text;strokeColor=none;fillColor=none;align=left;verticalAlign=top;spacingLeft=4;spacingRight=4;overflow=hidden;rotatable=0;points=[[0,0.5],[1,0.5]];portConstraint=eastwest;" parent="1QQ3cwLplbujhVV3ZzxS-24" vertex="1">
          <mxGeometry y="86" width="300" height="26" as="geometry"/>
        </mxCell>
        <mxCell id="1QQ3cwLplbujhVV3ZzxS-32" value="DataEventArgs" style="swimlane;fontStyle=1;align=center;verticalAlign=top;childLayout=stackLayout;horizontal=1;startSize=26;horizontalStack=0;resizeParent=1;resizeParentMax=0;resizeLast=0;collapsible=1;marginBottom=0;" parent="1" vertex="1">
          <mxGeometry x="-775" y="-35" width="350" height="112" as="geometry"/>
        </mxCell>
        <mxCell id="1QQ3cwLplbujhVV3ZzxS-33" value="+ data: DataEntry" style="text;strokeColor=none;fillColor=none;align=left;verticalAlign=top;spacingLeft=4;spacingRight=4;overflow=hidden;rotatable=0;points=[[0,0.5],[1,0.5]];portConstraint=eastwest;" parent="1QQ3cwLplbujhVV3ZzxS-32" vertex="1">
          <mxGeometry y="26" width="350" height="26" as="geometry"/>
        </mxCell>
        <mxCell id="1QQ3cwLplbujhVV3ZzxS-36" value="+ configs : IConfigContainer" style="text;strokeColor=none;fillColor=none;align=left;verticalAlign=top;spacingLeft=4;spacingRight=4;overflow=hidden;rotatable=0;points=[[0,0.5],[1,0.5]];portConstraint=eastwest;" parent="1QQ3cwLplbujhVV3ZzxS-32" vertex="1">
          <mxGeometry y="52" width="350" height="26" as="geometry"/>
        </mxCell>
        <mxCell id="1QQ3cwLplbujhVV3ZzxS-34" value="" style="line;strokeWidth=1;fillColor=none;align=left;verticalAlign=middle;spacingTop=-1;spacingLeft=3;spacingRight=3;rotatable=0;labelPosition=right;points=[];portConstraint=eastwest;" parent="1QQ3cwLplbujhVV3ZzxS-32" vertex="1">
          <mxGeometry y="78" width="350" height="8" as="geometry"/>
        </mxCell>
        <mxCell id="1QQ3cwLplbujhVV3ZzxS-35" value="+ DataEventArgs (data : DataEntry, configs : IConfigContainer)" style="text;strokeColor=none;fillColor=none;align=left;verticalAlign=top;spacingLeft=4;spacingRight=4;overflow=hidden;rotatable=0;points=[[0,0.5],[1,0.5]];portConstraint=eastwest;" parent="1QQ3cwLplbujhVV3ZzxS-32" vertex="1">
          <mxGeometry y="86" width="350" height="26" as="geometry"/>
        </mxCell>
        <mxCell id="1QQ3cwLplbujhVV3ZzxS-37" value="«interface»&lt;br&gt;&lt;b&gt;EventArgs&lt;/b&gt;" style="html=1;" parent="1" vertex="1">
          <mxGeometry x="-655" y="-165" width="110" height="50" as="geometry"/>
        </mxCell>
        <mxCell id="1QQ3cwLplbujhVV3ZzxS-43" value="" style="endArrow=block;dashed=1;endFill=0;endSize=12;html=1;exitX=0.5;exitY=0;exitDx=0;exitDy=0;" parent="1" source="1QQ3cwLplbujhVV3ZzxS-32" target="1QQ3cwLplbujhVV3ZzxS-37" edge="1">
          <mxGeometry width="160" relative="1" as="geometry">
            <mxPoint x="-995" y="-75" as="sourcePoint"/>
            <mxPoint x="-835" y="-75" as="targetPoint"/>
          </mxGeometry>
        </mxCell>
        <mxCell id="1QQ3cwLplbujhVV3ZzxS-45" value="&lt;p style=&quot;margin: 0px ; margin-top: 4px ; text-align: center&quot;&gt;&lt;i&gt;{abstract}&lt;/i&gt;&lt;br&gt;&lt;b&gt;Activity&lt;/b&gt;&lt;/p&gt;&lt;hr size=&quot;1&quot;&gt;&lt;p style=&quot;margin: 0px ; margin-left: 4px&quot;&gt;&lt;span&gt;- activityDone : EventHandler&amp;lt;ActivityArgs&amp;gt;&lt;/span&gt;&lt;br&gt;&lt;/p&gt;&lt;p style=&quot;margin: 0px ; margin-left: 4px&quot;&gt;&lt;span&gt;+ countEventHandler : int&lt;/span&gt;&lt;/p&gt;&lt;p style=&quot;margin: 0px ; margin-left: 4px&quot;&gt;&lt;br&gt;&lt;/p&gt;&lt;p style=&quot;margin: 0px ; margin-left: 4px&quot;&gt;&lt;span&gt;+ isBusy : bool&lt;/span&gt;&lt;/p&gt;&lt;p style=&quot;margin: 0px ; margin-left: 4px&quot;&gt;&lt;span&gt;+ buffer : ArrayList&amp;lt;DataBuffer&amp;gt;&amp;nbsp;&lt;/span&gt;&lt;/p&gt;&lt;p style=&quot;margin: 0px ; margin-left: 4px&quot;&gt;&lt;span&gt;&lt;br&gt;&lt;/span&gt;&lt;/p&gt;&lt;p style=&quot;margin: 0px ; margin-left: 4px&quot;&gt;&lt;span&gt;+ registerEventHandler(eventHandler : EventHandler&amp;lt;ActivityArgs&amp;gt;)&lt;/span&gt;&lt;/p&gt;&lt;p style=&quot;margin: 0px ; margin-left: 4px&quot;&gt;+ unregisterEventHandler(eventHandler : EventHandler&amp;lt;ActivityArgs&amp;gt;)&lt;/p&gt;&lt;p style=&quot;margin: 0px ; margin-left: 4px&quot;&gt;+ onDataUpdate(data : DataBuffer)&lt;br&gt;&lt;/p&gt;&lt;p style=&quot;margin: 0px ; margin-left: 4px&quot;&gt;&lt;br&gt;&lt;/p&gt;&lt;p style=&quot;margin: 0px ; margin-left: 4px&quot;&gt;+ init() : void&lt;/p&gt;&lt;p style=&quot;margin: 0px ; margin-left: 4px&quot;&gt;&lt;span&gt;+ startActivity() : bool&lt;/span&gt;&lt;/p&gt;&lt;p style=&quot;margin: 0px ; margin-left: 4px&quot;&gt;&lt;span&gt;+ stopActivity() : bool&lt;/span&gt;&lt;/p&gt;&lt;p style=&quot;margin: 0px ; margin-left: 4px&quot;&gt;+ analyse() : void {async}&lt;span&gt;&lt;br&gt;&lt;/span&gt;&lt;/p&gt;&lt;p style=&quot;margin: 0px ; margin-left: 4px&quot;&gt;&lt;br&gt;&lt;/p&gt;" style="verticalAlign=top;align=left;overflow=fill;fontSize=12;fontFamily=Helvetica;html=1;" parent="1" vertex="1">
          <mxGeometry x="465" y="510" width="415" height="250" as="geometry"/>
        </mxCell>
        <mxCell id="1QQ3cwLplbujhVV3ZzxS-46" value="PushUpActivity" style="swimlane;fontStyle=1;align=center;verticalAlign=top;childLayout=stackLayout;horizontal=1;startSize=26;horizontalStack=0;resizeParent=1;resizeParentMax=0;resizeLast=0;collapsible=1;marginBottom=0;" parent="1" vertex="1">
          <mxGeometry x="893.5" y="1001" width="160" height="86" as="geometry"/>
        </mxCell>
        <mxCell id="1QQ3cwLplbujhVV3ZzxS-48" value="" style="line;strokeWidth=1;fillColor=none;align=left;verticalAlign=middle;spacingTop=-1;spacingLeft=3;spacingRight=3;rotatable=0;labelPosition=right;points=[];portConstraint=eastwest;" parent="1QQ3cwLplbujhVV3ZzxS-46" vertex="1">
          <mxGeometry y="26" width="160" height="8" as="geometry"/>
        </mxCell>
        <mxCell id="1QQ3cwLplbujhVV3ZzxS-112" value="+ StepActivity()" style="text;strokeColor=none;fillColor=none;align=left;verticalAlign=top;spacingLeft=4;spacingRight=4;overflow=hidden;rotatable=0;points=[[0,0.5],[1,0.5]];portConstraint=eastwest;" parent="1QQ3cwLplbujhVV3ZzxS-46" vertex="1">
          <mxGeometry y="34" width="160" height="26" as="geometry"/>
        </mxCell>
        <mxCell id="1QQ3cwLplbujhVV3ZzxS-114" value="+ analyse() : void" style="text;strokeColor=none;fillColor=none;align=left;verticalAlign=top;spacingLeft=4;spacingRight=4;overflow=hidden;rotatable=0;points=[[0,0.5],[1,0.5]];portConstraint=eastwest;" parent="1QQ3cwLplbujhVV3ZzxS-46" vertex="1">
          <mxGeometry y="60" width="160" height="26" as="geometry"/>
        </mxCell>
        <mxCell id="1QQ3cwLplbujhVV3ZzxS-94" value="RunningActivity" style="swimlane;fontStyle=1;align=center;verticalAlign=top;childLayout=stackLayout;horizontal=1;startSize=26;horizontalStack=0;resizeParent=1;resizeParentMax=0;resizeLast=0;collapsible=1;marginBottom=0;" parent="1" vertex="1">
          <mxGeometry x="690" y="1000" width="160" height="86" as="geometry"/>
        </mxCell>
        <mxCell id="1QQ3cwLplbujhVV3ZzxS-96" value="" style="line;strokeWidth=1;fillColor=none;align=left;verticalAlign=middle;spacingTop=-1;spacingLeft=3;spacingRight=3;rotatable=0;labelPosition=right;points=[];portConstraint=eastwest;" parent="1QQ3cwLplbujhVV3ZzxS-94" vertex="1">
          <mxGeometry y="26" width="160" height="8" as="geometry"/>
        </mxCell>
        <mxCell id="1QQ3cwLplbujhVV3ZzxS-97" value="+ RunningActivity()" style="text;strokeColor=none;fillColor=none;align=left;verticalAlign=top;spacingLeft=4;spacingRight=4;overflow=hidden;rotatable=0;points=[[0,0.5],[1,0.5]];portConstraint=eastwest;" parent="1QQ3cwLplbujhVV3ZzxS-94" vertex="1">
          <mxGeometry y="34" width="160" height="26" as="geometry"/>
        </mxCell>
        <mxCell id="1QQ3cwLplbujhVV3ZzxS-113" value="+ analyse() : void" style="text;strokeColor=none;fillColor=none;align=left;verticalAlign=top;spacingLeft=4;spacingRight=4;overflow=hidden;rotatable=0;points=[[0,0.5],[1,0.5]];portConstraint=eastwest;" parent="1QQ3cwLplbujhVV3ZzxS-94" vertex="1">
          <mxGeometry y="60" width="160" height="26" as="geometry"/>
        </mxCell>
        <mxCell id="1QQ3cwLplbujhVV3ZzxS-102" value="SitUpActivity" style="swimlane;fontStyle=1;align=center;verticalAlign=top;childLayout=stackLayout;horizontal=1;startSize=27;horizontalStack=0;resizeParent=1;resizeParentMax=0;resizeLast=0;collapsible=1;marginBottom=0;" parent="1" vertex="1">
          <mxGeometry x="272.5" y="1000" width="160" height="87" as="geometry"/>
        </mxCell>
        <mxCell id="1QQ3cwLplbujhVV3ZzxS-104" value="" style="line;strokeWidth=1;fillColor=none;align=left;verticalAlign=middle;spacingTop=-1;spacingLeft=3;spacingRight=3;rotatable=0;labelPosition=right;points=[];portConstraint=eastwest;" parent="1QQ3cwLplbujhVV3ZzxS-102" vertex="1">
          <mxGeometry y="27" width="160" height="8" as="geometry"/>
        </mxCell>
        <mxCell id="1QQ3cwLplbujhVV3ZzxS-105" value="+ SitUpActivity()" style="text;strokeColor=none;fillColor=none;align=left;verticalAlign=top;spacingLeft=4;spacingRight=4;overflow=hidden;rotatable=0;points=[[0,0.5],[1,0.5]];portConstraint=eastwest;" parent="1QQ3cwLplbujhVV3ZzxS-102" vertex="1">
          <mxGeometry y="35" width="160" height="26" as="geometry"/>
        </mxCell>
        <mxCell id="1QQ3cwLplbujhVV3ZzxS-116" value="+ analyse() : void" style="text;strokeColor=none;fillColor=none;align=left;verticalAlign=top;spacingLeft=4;spacingRight=4;overflow=hidden;rotatable=0;points=[[0,0.5],[1,0.5]];portConstraint=eastwest;" parent="1QQ3cwLplbujhVV3ZzxS-102" vertex="1">
          <mxGeometry y="61" width="160" height="26" as="geometry"/>
        </mxCell>
        <mxCell id="1QQ3cwLplbujhVV3ZzxS-98" value="StepActivity" style="swimlane;fontStyle=1;align=center;verticalAlign=top;childLayout=stackLayout;horizontal=1;startSize=26;horizontalStack=0;resizeParent=1;resizeParentMax=0;resizeLast=0;collapsible=1;marginBottom=0;" parent="1" vertex="1">
          <mxGeometry x="481.5" y="1000" width="160" height="86" as="geometry"/>
        </mxCell>
        <mxCell id="1QQ3cwLplbujhVV3ZzxS-100" value="" style="line;strokeWidth=1;fillColor=none;align=left;verticalAlign=middle;spacingTop=-1;spacingLeft=3;spacingRight=3;rotatable=0;labelPosition=right;points=[];portConstraint=eastwest;" parent="1QQ3cwLplbujhVV3ZzxS-98" vertex="1">
          <mxGeometry y="26" width="160" height="8" as="geometry"/>
        </mxCell>
        <mxCell id="1QQ3cwLplbujhVV3ZzxS-111" value="+ StepActivity()" style="text;strokeColor=none;fillColor=none;align=left;verticalAlign=top;spacingLeft=4;spacingRight=4;overflow=hidden;rotatable=0;points=[[0,0.5],[1,0.5]];portConstraint=eastwest;" parent="1QQ3cwLplbujhVV3ZzxS-98" vertex="1">
          <mxGeometry y="34" width="160" height="26" as="geometry"/>
        </mxCell>
        <mxCell id="1QQ3cwLplbujhVV3ZzxS-115" value="+ analyse() : void" style="text;strokeColor=none;fillColor=none;align=left;verticalAlign=top;spacingLeft=4;spacingRight=4;overflow=hidden;rotatable=0;points=[[0,0.5],[1,0.5]];portConstraint=eastwest;" parent="1QQ3cwLplbujhVV3ZzxS-98" vertex="1">
          <mxGeometry y="60" width="160" height="26" as="geometry"/>
        </mxCell>
        <mxCell id="1QQ3cwLplbujhVV3ZzxS-50" value="«interface»&lt;br&gt;&lt;b&gt;EventArgs&lt;/b&gt;" style="html=1;" parent="1" vertex="1">
          <mxGeometry x="-172.5" y="540" width="110" height="50" as="geometry"/>
        </mxCell>
        <mxCell id="1QQ3cwLplbujhVV3ZzxS-51" value="PushUpEventArgs" style="swimlane;fontStyle=1;align=center;verticalAlign=top;childLayout=stackLayout;horizontal=1;startSize=26;horizontalStack=0;resizeParent=1;resizeParentMax=0;resizeLast=0;collapsible=1;marginBottom=0;" parent="1" vertex="1">
          <mxGeometry x="-455" y="1010" width="210" height="34" as="geometry">
            <mxRectangle x="20" y="777" width="140" height="26" as="alternateBounds"/>
          </mxGeometry>
        </mxCell>
        <mxCell id="1QQ3cwLplbujhVV3ZzxS-53" value="" style="line;strokeWidth=1;fillColor=none;align=left;verticalAlign=middle;spacingTop=-1;spacingLeft=3;spacingRight=3;rotatable=0;labelPosition=right;points=[];portConstraint=eastwest;" parent="1QQ3cwLplbujhVV3ZzxS-51" vertex="1">
          <mxGeometry y="26" width="210" height="8" as="geometry"/>
        </mxCell>
        <mxCell id="1QQ3cwLplbujhVV3ZzxS-66" value="SitUpEventArgs" style="swimlane;fontStyle=1;align=center;verticalAlign=top;childLayout=stackLayout;horizontal=1;startSize=26;horizontalStack=0;resizeParent=1;resizeParentMax=0;resizeLast=0;collapsible=1;marginBottom=0;" parent="1" vertex="1">
          <mxGeometry x="10" y="1010" width="210" height="34" as="geometry"/>
        </mxCell>
        <mxCell id="1QQ3cwLplbujhVV3ZzxS-69" value="" style="line;strokeWidth=1;fillColor=none;align=left;verticalAlign=middle;spacingTop=-1;spacingLeft=3;spacingRight=3;rotatable=0;labelPosition=right;points=[];portConstraint=eastwest;" parent="1QQ3cwLplbujhVV3ZzxS-66" vertex="1">
          <mxGeometry y="26" width="210" height="8" as="geometry"/>
        </mxCell>
        <mxCell id="1QQ3cwLplbujhVV3ZzxS-73" value="RunningEventArgs" style="swimlane;fontStyle=1;align=center;verticalAlign=top;childLayout=stackLayout;horizontal=1;startSize=26;horizontalStack=0;resizeParent=1;resizeParentMax=0;resizeLast=0;collapsible=1;marginBottom=0;" parent="1" vertex="1">
          <mxGeometry x="-455" y="644" width="160" height="60" as="geometry"/>
        </mxCell>
        <mxCell id="1QQ3cwLplbujhVV3ZzxS-74" value="+ running : boolean" style="text;strokeColor=none;fillColor=none;align=left;verticalAlign=top;spacingLeft=4;spacingRight=4;overflow=hidden;rotatable=0;points=[[0,0.5],[1,0.5]];portConstraint=eastwest;" parent="1QQ3cwLplbujhVV3ZzxS-73" vertex="1">
          <mxGeometry y="26" width="160" height="26" as="geometry"/>
        </mxCell>
        <mxCell id="1QQ3cwLplbujhVV3ZzxS-76" value="" style="line;strokeWidth=1;fillColor=none;align=left;verticalAlign=middle;spacingTop=-1;spacingLeft=3;spacingRight=3;rotatable=0;labelPosition=right;points=[];portConstraint=eastwest;" parent="1QQ3cwLplbujhVV3ZzxS-73" vertex="1">
          <mxGeometry y="52" width="160" height="8" as="geometry"/>
        </mxCell>
        <mxCell id="1QQ3cwLplbujhVV3ZzxS-79" value="«interface»&lt;br&gt;&lt;b&gt;ActivityArgs&lt;br&gt;&lt;/b&gt;" style="html=1;" parent="1" vertex="1">
          <mxGeometry x="-172.5" y="647.5" width="110" height="50" as="geometry"/>
        </mxCell>
        <mxCell id="1QQ3cwLplbujhVV3ZzxS-81" value="Extends" style="endArrow=block;endSize=16;endFill=0;html=1;entryX=0.5;entryY=1;entryDx=0;entryDy=0;exitX=0.5;exitY=0;exitDx=0;exitDy=0;" parent="1" source="1QQ3cwLplbujhVV3ZzxS-79" target="1QQ3cwLplbujhVV3ZzxS-50" edge="1">
          <mxGeometry width="160" relative="1" as="geometry">
            <mxPoint x="120" y="660" as="sourcePoint"/>
            <mxPoint x="280" y="650" as="targetPoint"/>
          </mxGeometry>
        </mxCell>
        <mxCell id="1QQ3cwLplbujhVV3ZzxS-83" value="StepEventArgs" style="swimlane;fontStyle=1;align=center;verticalAlign=top;childLayout=stackLayout;horizontal=1;startSize=26;horizontalStack=0;resizeParent=1;resizeParentMax=0;resizeLast=0;collapsible=1;marginBottom=0;" parent="1" vertex="1">
          <mxGeometry x="-222.5" y="1009.5" width="210" height="34" as="geometry"/>
        </mxCell>
        <mxCell id="1QQ3cwLplbujhVV3ZzxS-85" value="" style="line;strokeWidth=1;fillColor=none;align=left;verticalAlign=middle;spacingTop=-1;spacingLeft=3;spacingRight=3;rotatable=0;labelPosition=right;points=[];portConstraint=eastwest;" parent="1QQ3cwLplbujhVV3ZzxS-83" vertex="1">
          <mxGeometry y="26" width="210" height="8" as="geometry"/>
        </mxCell>
        <mxCell id="1QQ3cwLplbujhVV3ZzxS-87" value="&lt;p style=&quot;margin: 0px ; margin-top: 4px ; text-align: center&quot;&gt;&lt;i&gt;&amp;lt;&amp;lt;Interface&amp;gt;&amp;gt;&lt;/i&gt;&lt;br&gt;&lt;b&gt;CountableActivityArgs&lt;/b&gt;&lt;/p&gt;&lt;hr size=&quot;1&quot;&gt;&lt;p style=&quot;margin: 0px ; margin-left: 4px&quot;&gt;+ amount : int&lt;/p&gt;&lt;hr size=&quot;1&quot;&gt;&lt;p style=&quot;margin: 0px ; margin-left: 4px&quot;&gt;+ CountableActivityArgs(amount : int)&lt;/p&gt;" style="verticalAlign=top;align=left;overflow=fill;fontSize=12;fontFamily=Helvetica;html=1;" parent="1" vertex="1">
          <mxGeometry x="-237.5" y="770" width="240" height="98" as="geometry"/>
        </mxCell>
        <mxCell id="1QQ3cwLplbujhVV3ZzxS-88" value="Extends" style="endArrow=block;endSize=16;endFill=0;html=1;entryX=0.5;entryY=1;entryDx=0;entryDy=0;exitX=0.5;exitY=0;exitDx=0;exitDy=0;" parent="1" source="1QQ3cwLplbujhVV3ZzxS-87" target="1QQ3cwLplbujhVV3ZzxS-79" edge="1">
          <mxGeometry width="160" relative="1" as="geometry">
            <mxPoint x="-50" y="730" as="sourcePoint"/>
            <mxPoint x="110" y="730" as="targetPoint"/>
          </mxGeometry>
        </mxCell>
        <mxCell id="1QQ3cwLplbujhVV3ZzxS-89" value="" style="endArrow=block;dashed=1;endFill=0;endSize=12;html=1;exitX=0.5;exitY=0;exitDx=0;exitDy=0;entryX=0.5;entryY=1;entryDx=0;entryDy=0;" parent="1" source="1QQ3cwLplbujhVV3ZzxS-83" target="1QQ3cwLplbujhVV3ZzxS-87" edge="1">
          <mxGeometry width="160" relative="1" as="geometry">
            <mxPoint x="160" y="880" as="sourcePoint"/>
            <mxPoint x="320" y="880" as="targetPoint"/>
          </mxGeometry>
        </mxCell>
        <mxCell id="1QQ3cwLplbujhVV3ZzxS-90" value="" style="endArrow=block;dashed=1;endFill=0;endSize=12;html=1;entryX=0.5;entryY=1;entryDx=0;entryDy=0;exitX=0.5;exitY=0;exitDx=0;exitDy=0;" parent="1" source="1QQ3cwLplbujhVV3ZzxS-51" target="1QQ3cwLplbujhVV3ZzxS-87" edge="1">
          <mxGeometry width="160" relative="1" as="geometry">
            <mxPoint x="-145" y="957" as="sourcePoint"/>
            <mxPoint x="30" y="890" as="targetPoint"/>
          </mxGeometry>
        </mxCell>
        <mxCell id="1QQ3cwLplbujhVV3ZzxS-91" value="" style="endArrow=block;dashed=1;endFill=0;endSize=12;html=1;entryX=0.5;entryY=1;entryDx=0;entryDy=0;exitX=0.5;exitY=0;exitDx=0;exitDy=0;" parent="1" source="1QQ3cwLplbujhVV3ZzxS-66" target="1QQ3cwLplbujhVV3ZzxS-87" edge="1">
          <mxGeometry width="160" relative="1" as="geometry">
            <mxPoint x="155" y="977" as="sourcePoint"/>
            <mxPoint x="60" y="878" as="targetPoint"/>
          </mxGeometry>
        </mxCell>
        <mxCell id="1QQ3cwLplbujhVV3ZzxS-93" value="" style="endArrow=block;dashed=1;endFill=0;endSize=12;html=1;exitX=1;exitY=0.5;exitDx=0;exitDy=0;entryX=0;entryY=0.5;entryDx=0;entryDy=0;" parent="1" source="1QQ3cwLplbujhVV3ZzxS-73" target="1QQ3cwLplbujhVV3ZzxS-79" edge="1">
          <mxGeometry width="160" relative="1" as="geometry">
            <mxPoint x="-230" y="760" as="sourcePoint"/>
            <mxPoint x="-70" y="760" as="targetPoint"/>
          </mxGeometry>
        </mxCell>
        <mxCell id="1QQ3cwLplbujhVV3ZzxS-137" value="" style="group" parent="1" vertex="1" connectable="0">
          <mxGeometry x="190" y="146" width="325" height="166" as="geometry"/>
        </mxCell>
        <mxCell id="1QQ3cwLplbujhVV3ZzxS-1" value="EmGod" style="swimlane;fontStyle=1;align=center;verticalAlign=top;childLayout=stackLayout;horizontal=1;startSize=28;horizontalStack=0;resizeParent=1;resizeParentMax=0;resizeLast=0;collapsible=1;marginBottom=0;" parent="1QQ3cwLplbujhVV3ZzxS-137" vertex="1">
          <mxGeometry width="325" height="114" as="geometry">
            <mxRectangle width="140" height="28" as="alternateBounds"/>
          </mxGeometry>
        </mxCell>
        <mxCell id="n2-QzeIZX0uXDNsSAh_k-1" value="+ ActivityProvider : ServiceProvider" style="text;strokeColor=none;fillColor=none;align=left;verticalAlign=top;spacingLeft=4;spacingRight=4;overflow=hidden;rotatable=0;points=[[0,0.5],[1,0.5]];portConstraint=eastwest;" parent="1QQ3cwLplbujhVV3ZzxS-1" vertex="1">
          <mxGeometry y="28" width="325" height="26" as="geometry"/>
        </mxCell>
        <mxCell id="1QQ3cwLplbujhVV3ZzxS-3" value="" style="line;strokeWidth=1;fillColor=none;align=left;verticalAlign=middle;spacingTop=-1;spacingLeft=3;spacingRight=3;rotatable=0;labelPosition=right;points=[];portConstraint=eastwest;" parent="1QQ3cwLplbujhVV3ZzxS-1" vertex="1">
          <mxGeometry y="54" width="325" height="8" as="geometry"/>
        </mxCell>
        <mxCell id="1QQ3cwLplbujhVV3ZzxS-4" value="+ EmGod()" style="text;strokeColor=none;fillColor=none;align=left;verticalAlign=top;spacingLeft=4;spacingRight=4;overflow=hidden;rotatable=0;points=[[0,0.5],[1,0.5]];portConstraint=eastwest;" parent="1QQ3cwLplbujhVV3ZzxS-1" vertex="1">
          <mxGeometry y="62" width="325" height="26" as="geometry"/>
        </mxCell>
        <mxCell id="1QQ3cwLplbujhVV3ZzxS-123" value="- serviceRegistration(out collection IServiceCollection)" style="text;strokeColor=none;fillColor=none;align=left;verticalAlign=top;spacingLeft=4;spacingRight=4;overflow=hidden;rotatable=0;points=[[0,0.5],[1,0.5]];portConstraint=eastwest;" parent="1QQ3cwLplbujhVV3ZzxS-1" vertex="1">
          <mxGeometry y="88" width="325" height="26" as="geometry"/>
        </mxCell>
        <mxCell id="1QQ3cwLplbujhVV3ZzxS-135" value="+ activities" style="endArrow=block;endFill=1;html=1;edgeStyle=orthogonalEdgeStyle;align=left;verticalAlign=top;exitX=0.5;exitY=1;exitDx=0;exitDy=0;entryX=0.5;entryY=0;entryDx=0;entryDy=0;" parent="1" source="1QQ3cwLplbujhVV3ZzxS-1" target="1QQ3cwLplbujhVV3ZzxS-45" edge="1">
          <mxGeometry x="0.9176" y="7" relative="1" as="geometry">
            <mxPoint x="350" y="330" as="sourcePoint"/>
            <mxPoint x="580" y="500" as="targetPoint"/>
            <mxPoint as="offset"/>
          </mxGeometry>
        </mxCell>
        <mxCell id="1QQ3cwLplbujhVV3ZzxS-136" value="4...*" style="resizable=0;html=1;align=left;verticalAlign=bottom;labelBackgroundColor=#ffffff;fontSize=10;" parent="1QQ3cwLplbujhVV3ZzxS-135" connectable="0" vertex="1">
          <mxGeometry x="-1" relative="1" as="geometry">
            <mxPoint x="289" y="161.5" as="offset"/>
          </mxGeometry>
        </mxCell>
        <mxCell id="1QQ3cwLplbujhVV3ZzxS-141" value="&lt;font style=&quot;font-size: 20px&quot;&gt;Fragen:&lt;br&gt;&lt;/font&gt;&lt;div&gt;&lt;font style=&quot;font-size: 20px&quot;&gt;- Sind die Settings im Model? (Username, Language, werden nicht in einer DB gespeichert))&lt;/font&gt;&lt;/div&gt;&lt;div&gt;&lt;font style=&quot;font-size: 20px&quot;&gt;https://docs.microsoft.com/de-de/xamarin/essentials/preferences?tabs=android&lt;br&gt;&lt;/font&gt;&lt;/div&gt;&lt;font style=&quot;font-size: 20px&quot;&gt;- Sollen wir überhaupt buffern?&lt;br&gt;- DataBuffer Funktionalitäten auslagern?&lt;br&gt;-MultiLanguage funkt noch nicht? (https://docs.microsoft.com/de-de/xamarin/xamarin-forms/app-fundamentals/localization/text?pivots=windows)&lt;br&gt;&lt;/font&gt;" style="text;html=1;align=center;verticalAlign=middle;resizable=0;points=[];;autosize=1;" parent="1" vertex="1">
          <mxGeometry x="-1320" y="385" width="1290" height="110" as="geometry"/>
        </mxCell>
        <mxCell id="n2-QzeIZX0uXDNsSAh_k-9" value="{abstract}&lt;br&gt;&lt;b&gt;AbstractSitUpActivity&lt;/b&gt;" style="html=1;" parent="1" vertex="1">
          <mxGeometry x="272.5" y="875" width="160" height="50" as="geometry"/>
        </mxCell>
        <mxCell id="n2-QzeIZX0uXDNsSAh_k-11" value="{abstract}&lt;br&gt;&lt;b&gt;AbstractPushUpActivity&lt;/b&gt;" style="html=1;" parent="1" vertex="1">
          <mxGeometry x="898.5" y="875" width="150" height="50" as="geometry"/>
        </mxCell>
        <mxCell id="n2-QzeIZX0uXDNsSAh_k-12" value="{abstract}&lt;br&gt;&lt;b&gt;AbstractRunningActivity&lt;/b&gt;" style="html=1;" parent="1" vertex="1">
          <mxGeometry x="690" y="875" width="160" height="50" as="geometry"/>
        </mxCell>
        <mxCell id="n2-QzeIZX0uXDNsSAh_k-14" value="{abstract}&lt;br&gt;&lt;b&gt;AbstractStepActivity&lt;/b&gt;" style="html=1;" parent="1" vertex="1">
          <mxGeometry x="481.5" y="875" width="160" height="50" as="geometry"/>
        </mxCell>
        <mxCell id="n2-QzeIZX0uXDNsSAh_k-16" value="Extends" style="endArrow=block;endSize=16;endFill=0;html=1;exitX=0.5;exitY=0;exitDx=0;exitDy=0;entryX=0.5;entryY=1;entryDx=0;entryDy=0;" parent="1" source="1QQ3cwLplbujhVV3ZzxS-102" target="n2-QzeIZX0uXDNsSAh_k-9" edge="1">
          <mxGeometry width="160" relative="1" as="geometry">
            <mxPoint x="490" y="810" as="sourcePoint"/>
            <mxPoint x="380" y="940" as="targetPoint"/>
          </mxGeometry>
        </mxCell>
        <mxCell id="n2-QzeIZX0uXDNsSAh_k-17" value="Extends" style="endArrow=block;endSize=16;endFill=0;html=1;exitX=0.5;exitY=0;exitDx=0;exitDy=0;entryX=0.5;entryY=1;entryDx=0;entryDy=0;" parent="1" source="1QQ3cwLplbujhVV3ZzxS-98" target="n2-QzeIZX0uXDNsSAh_k-14" edge="1">
          <mxGeometry width="160" relative="1" as="geometry">
            <mxPoint x="556" y="869" as="sourcePoint"/>
            <mxPoint x="764" y="803.5" as="targetPoint"/>
          </mxGeometry>
        </mxCell>
        <mxCell id="n2-QzeIZX0uXDNsSAh_k-18" value="Extends" style="endArrow=block;endSize=16;endFill=0;html=1;exitX=0.5;exitY=0;exitDx=0;exitDy=0;entryX=0.5;entryY=1;entryDx=0;entryDy=0;" parent="1" source="1QQ3cwLplbujhVV3ZzxS-94" target="n2-QzeIZX0uXDNsSAh_k-12" edge="1">
          <mxGeometry width="160" relative="1" as="geometry">
            <mxPoint x="580" y="987" as="sourcePoint"/>
            <mxPoint x="683" y="770" as="targetPoint"/>
          </mxGeometry>
        </mxCell>
        <mxCell id="n2-QzeIZX0uXDNsSAh_k-19" value="Extends" style="endArrow=block;endSize=16;endFill=0;html=1;exitX=0.5;exitY=0;exitDx=0;exitDy=0;entryX=0.5;entryY=1;entryDx=0;entryDy=0;" parent="1" source="1QQ3cwLplbujhVV3ZzxS-46" target="n2-QzeIZX0uXDNsSAh_k-11" edge="1">
          <mxGeometry width="160" relative="1" as="geometry">
            <mxPoint x="750" y="987" as="sourcePoint"/>
            <mxPoint x="683" y="770" as="targetPoint"/>
          </mxGeometry>
        </mxCell>
        <mxCell id="sXvjfolYUnGrp_yOVfev-1" value="Extends" style="endArrow=block;endSize=16;endFill=0;html=1;exitX=0.5;exitY=0;exitDx=0;exitDy=0;entryX=0.5;entryY=1;entryDx=0;entryDy=0;" parent="1" source="n2-QzeIZX0uXDNsSAh_k-11" target="1QQ3cwLplbujhVV3ZzxS-45" edge="1">
          <mxGeometry width="160" relative="1" as="geometry">
            <mxPoint x="1075" y="788" as="sourcePoint"/>
            <mxPoint x="740" y="780" as="targetPoint"/>
          </mxGeometry>
        </mxCell>
        <mxCell id="sXvjfolYUnGrp_yOVfev-2" value="Extends" style="endArrow=block;endSize=16;endFill=0;html=1;exitX=0.5;exitY=0;exitDx=0;exitDy=0;entryX=0.5;entryY=1;entryDx=0;entryDy=0;" parent="1" source="n2-QzeIZX0uXDNsSAh_k-12" target="1QQ3cwLplbujhVV3ZzxS-45" edge="1">
          <mxGeometry width="160" relative="1" as="geometry">
            <mxPoint x="750" y="987" as="sourcePoint"/>
            <mxPoint x="683" y="770" as="targetPoint"/>
          </mxGeometry>
        </mxCell>
        <mxCell id="sXvjfolYUnGrp_yOVfev-3" value="Extends" style="endArrow=block;endSize=16;endFill=0;html=1;exitX=0.5;exitY=0;exitDx=0;exitDy=0;entryX=0.5;entryY=1;entryDx=0;entryDy=0;" parent="1" source="n2-QzeIZX0uXDNsSAh_k-14" target="1QQ3cwLplbujhVV3ZzxS-45" edge="1">
          <mxGeometry width="160" relative="1" as="geometry">
            <mxPoint x="760" y="997" as="sourcePoint"/>
            <mxPoint x="670" y="790" as="targetPoint"/>
          </mxGeometry>
        </mxCell>
        <mxCell id="sXvjfolYUnGrp_yOVfev-4" value="Extends" style="endArrow=block;endSize=16;endFill=0;html=1;exitX=0.5;exitY=0;exitDx=0;exitDy=0;entryX=0.5;entryY=1;entryDx=0;entryDy=0;" parent="1" source="n2-QzeIZX0uXDNsSAh_k-9" target="1QQ3cwLplbujhVV3ZzxS-45" edge="1">
          <mxGeometry width="160" relative="1" as="geometry">
            <mxPoint x="486" y="977" as="sourcePoint"/>
            <mxPoint x="419" y="760" as="targetPoint"/>
          </mxGeometry>
        </mxCell>
        <mxCell id="sXvjfolYUnGrp_yOVfev-15" value="&lt;p style=&quot;margin: 0px ; margin-top: 4px ; text-align: center&quot;&gt;&lt;i&gt;&amp;lt;&amp;lt;Interface&amp;gt;&amp;gt;&lt;/i&gt;&lt;br&gt;&lt;b&gt;IDataBaseConnection&lt;/b&gt;&lt;/p&gt;&lt;hr size=&quot;1&quot;&gt;&lt;p style=&quot;margin: 0px ; margin-left: 4px&quot;&gt;+ saveDBEntry(entry : DBEntry)&lt;/p&gt;&lt;p style=&quot;margin: 0px ; margin-left: 4px&quot;&gt;+ getEntriesAsync(): Task&amp;lt;List&amp;lt;DBEntry&amp;gt;&amp;gt;&lt;br&gt;&lt;span style=&quot;color: rgba(0 , 0 , 0 , 0) ; font-family: monospace ; font-size: 0px&quot;&gt;%3CmxGraphModel%3E%3Croot%3E%3CmxCell%20id%3D%220%22%2F%3E%3CmxCell%20id%3D%221%22%20parent%3D%220%22%2F%3E%3CmxCell%20id%3D%222%22%20value%3D%22%2B%20getEntriesAsync()%3A%20Task%26lt%3BList%26lt%3BDBEntry%26gt%3B%26gt%3B%22%20style%3D%22text%3BstrokeColor%3Dnone%3BfillColor%3Dnone%3Balign%3Dleft%3BverticalAlign%3Dtop%3BspacingLeft%3D4%3BspacingRight%3D4%3Boverflow%3Dhidden%3Brotatable%3D0%3Bpoints%3D%5B%5B0%2C0.5%5D%2C%5B1%2C0.5%5D%5D%3BportConstraint%3Deastwest%3B%22%20vertex%3D%221%22%20parent%3D%221%22%3E%3CmxGeometry%20x%3D%221080%22%20y%3D%22493%22%20width%3D%22250%22%20height%3D%2226%22%20as%3D%22geometry%22%2F%3E%3C%2FmxCell%3E%3C%2Froot%3E%3C%2FmxGraphModel%3E&lt;/span&gt;&lt;/p&gt;&lt;span style=&quot;color: rgba(0 , 0 , 0 , 0) ; font-family: monospace ; font-size: 0px&quot;&gt;%3CmxGraphModel%3E%3Croot%3E%3CmxCell%20id%3D%220%22%2F%3E%3CmxCell%20id%3D%221%22%20parent%3D%220%22%2F%3E%3CmxCell%20id%3D%222%22%20value%3D%22%2B%20getEntriesAsync()%3A%20Task%26lt%3BList%26lt%3BDBEntry%26gt%3B%26gt%3B%22%20style%3D%22text%3BstrokeColor%3Dnone%3BfillColor%3Dnone%3Balign%3Dleft%3BverticalAlign%3Dtop%3BspacingLeft%3D4%3BspacingRight%3D4%3Boverflow%3Dhidden%3Brotatable%3D0%3Bpoints%3D%5B%5B0%2C0.5%5D%2C%5B1%2C0.5%5D%5D%3BportConstraint%3Deastwest%3B%22%20vertex%3D%221%22%20parent%3D%221%22%3E%3CmxGeometry%20x%3D%221080%22%20y%3D%22493%22%20width%3D%22250%22%20height%3D%2226%22%20as%3D%22geometry%22%2F%3E%3C%2FmxCell%3E%3C%2Froot%3E%3C%2FmxGraphModel%3E&lt;/span&gt;&lt;span style=&quot;color: rgba(0 , 0 , 0 , 0) ; font-family: monospace ; font-size: 0px&quot;&gt;%3CmxGraphModel%3E%3Croot%3E%3CmxCell%20id%3D%220%22%2F%3E%3CmxCell%20id%3D%221%22%20parent%3D%220%22%2F%3E%3CmxCell%20id%3D%222%22%20value%3D%22%2B%20getEntriesAsync()%3A%20Task%26lt%3BList%26lt%3BDBEntry%26gt%3B%26gt%3B%22%20style%3D%22text%3BstrokeColor%3Dnone%3BfillColor%3Dnone%3Balign%3Dleft%3BverticalAlign%3Dtop%3BspacingLeft%3D4%3BspacingRight%3D4%3Boverflow%3Dhidden%3Brotatable%3D0%3Bpoints%3D%5B%5B0%2C0.5%5D%2C%5B1%2C0.5%5D%5D%3BportConstraint%3Deastwest%3B%22%20vertex%3D%221%22%20parent%3D%221%22%3E%3CmxGeometry%20x%3D%221080%22%20y%3D%22493%22%20width%3D%22250%22%20height%3D%2226%22%20as%3D%22geometry%22%2F%3E%3C%2FmxCell%3E%3C%2Froot%3E%3C%2FmxGraphModel%3E&lt;/span&gt;" style="verticalAlign=top;align=left;overflow=fill;fontSize=12;fontFamily=Helvetica;html=1;" parent="1" vertex="1">
          <mxGeometry x="1265" y="400" width="290" height="80" as="geometry"/>
        </mxCell>
        <mxCell id="sXvjfolYUnGrp_yOVfev-22" value="&lt;p style=&quot;margin: 0px ; margin-top: 4px ; text-align: center&quot;&gt;&lt;b&gt;SQLiteAsyncConnection&lt;/b&gt;&lt;/p&gt;" style="verticalAlign=top;align=left;overflow=fill;fontSize=12;fontFamily=Helvetica;html=1;" parent="1" vertex="1">
          <mxGeometry x="1620" y="575" width="170" height="30" as="geometry"/>
        </mxCell>
        <mxCell id="sXvjfolYUnGrp_yOVfev-26" value="" style="endArrow=block;dashed=1;endFill=0;endSize=12;html=1;entryX=0.5;entryY=1;entryDx=0;entryDy=0;" parent="1" source="sXvjfolYUnGrp_yOVfev-16" target="sXvjfolYUnGrp_yOVfev-15" edge="1">
          <mxGeometry width="160" relative="1" as="geometry">
            <mxPoint x="1300" y="435" as="sourcePoint"/>
            <mxPoint x="1340" y="460" as="targetPoint"/>
          </mxGeometry>
        </mxCell>
        <mxCell id="sXvjfolYUnGrp_yOVfev-27" value="SettingsService" style="swimlane;fontStyle=1;align=center;verticalAlign=top;childLayout=stackLayout;horizontal=1;startSize=26;horizontalStack=0;resizeParent=1;resizeParentMax=0;resizeLast=0;collapsible=1;marginBottom=0;" parent="1" vertex="1">
          <mxGeometry x="1274.5" y="722" width="160" height="34" as="geometry"/>
        </mxCell>
        <mxCell id="sXvjfolYUnGrp_yOVfev-29" value="" style="line;strokeWidth=1;fillColor=none;align=left;verticalAlign=middle;spacingTop=-1;spacingLeft=3;spacingRight=3;rotatable=0;labelPosition=right;points=[];portConstraint=eastwest;" parent="sXvjfolYUnGrp_yOVfev-27" vertex="1">
          <mxGeometry y="26" width="160" height="8" as="geometry"/>
        </mxCell>
        <mxCell id="sXvjfolYUnGrp_yOVfev-36" value="&lt;font style=&quot;font-size: 10px&quot;&gt;_database 1&lt;/font&gt;" style="rounded=0;orthogonalLoop=1;jettySize=auto;html=1;entryX=0;entryY=0.5;entryDx=0;entryDy=0;exitX=1;exitY=0.154;exitDx=0;exitDy=0;exitPerimeter=0;fontStyle=0;fontSize=7;" parent="1" source="sXvjfolYUnGrp_yOVfev-17" target="sXvjfolYUnGrp_yOVfev-22" edge="1">
          <mxGeometry x="0.6842" y="15" relative="1" as="geometry">
            <mxPoint as="offset"/>
          </mxGeometry>
        </mxCell>
        <mxCell id="sXvjfolYUnGrp_yOVfev-16" value="DatabaseConnection" style="swimlane;fontStyle=1;align=center;verticalAlign=top;childLayout=stackLayout;horizontal=1;startSize=26;horizontalStack=0;resizeParent=1;resizeParentMax=0;resizeLast=0;collapsible=1;marginBottom=0;" parent="1" vertex="1">
          <mxGeometry x="1330" y="560" width="160" height="60" as="geometry"/>
        </mxCell>
        <mxCell id="sXvjfolYUnGrp_yOVfev-17" value="- path : string" style="text;strokeColor=none;fillColor=none;align=left;verticalAlign=top;spacingLeft=4;spacingRight=4;overflow=hidden;rotatable=0;points=[[0,0.5],[1,0.5]];portConstraint=eastwest;" parent="sXvjfolYUnGrp_yOVfev-16" vertex="1">
          <mxGeometry y="26" width="160" height="26" as="geometry"/>
        </mxCell>
        <mxCell id="sXvjfolYUnGrp_yOVfev-18" value="" style="line;strokeWidth=1;fillColor=none;align=left;verticalAlign=middle;spacingTop=-1;spacingLeft=3;spacingRight=3;rotatable=0;labelPosition=right;points=[];portConstraint=eastwest;" parent="sXvjfolYUnGrp_yOVfev-16" vertex="1">
          <mxGeometry y="52" width="160" height="8" as="geometry"/>
        </mxCell>
        <mxCell id="sXvjfolYUnGrp_yOVfev-40" value="DBEntry" style="swimlane;fontStyle=1;align=center;verticalAlign=top;childLayout=stackLayout;horizontal=1;startSize=26;horizontalStack=0;resizeParent=1;resizeParentMax=0;resizeLast=0;collapsible=1;marginBottom=0;fontSize=11;" parent="1" vertex="1">
          <mxGeometry x="1690" y="376" width="160" height="164" as="geometry"/>
        </mxCell>
        <mxCell id="sXvjfolYUnGrp_yOVfev-41" value="+ Date : DateTime" style="text;strokeColor=none;fillColor=none;align=left;verticalAlign=top;spacingLeft=4;spacingRight=4;overflow=hidden;rotatable=0;points=[[0,0.5],[1,0.5]];portConstraint=eastwest;" parent="sXvjfolYUnGrp_yOVfev-40" vertex="1">
          <mxGeometry y="26" width="160" height="26" as="geometry"/>
        </mxCell>
        <mxCell id="sXvjfolYUnGrp_yOVfev-45" value="+ Liegestützen : int" style="text;strokeColor=none;fillColor=none;align=left;verticalAlign=top;spacingLeft=4;spacingRight=4;overflow=hidden;rotatable=0;points=[[0,0.5],[1,0.5]];portConstraint=eastwest;" parent="sXvjfolYUnGrp_yOVfev-40" vertex="1">
          <mxGeometry y="52" width="160" height="26" as="geometry"/>
        </mxCell>
        <mxCell id="sXvjfolYUnGrp_yOVfev-46" value="+ SitUps : int" style="text;strokeColor=none;fillColor=none;align=left;verticalAlign=top;spacingLeft=4;spacingRight=4;overflow=hidden;rotatable=0;points=[[0,0.5],[1,0.5]];portConstraint=eastwest;" parent="sXvjfolYUnGrp_yOVfev-40" vertex="1">
          <mxGeometry y="78" width="160" height="26" as="geometry"/>
        </mxCell>
        <mxCell id="sXvjfolYUnGrp_yOVfev-44" value="+ Schritte : int" style="text;strokeColor=none;fillColor=none;align=left;verticalAlign=top;spacingLeft=4;spacingRight=4;overflow=hidden;rotatable=0;points=[[0,0.5],[1,0.5]];portConstraint=eastwest;" parent="sXvjfolYUnGrp_yOVfev-40" vertex="1">
          <mxGeometry y="104" width="160" height="26" as="geometry"/>
        </mxCell>
        <mxCell id="sXvjfolYUnGrp_yOVfev-42" value="" style="line;strokeWidth=1;fillColor=none;align=left;verticalAlign=middle;spacingTop=-1;spacingLeft=3;spacingRight=3;rotatable=0;labelPosition=right;points=[];portConstraint=eastwest;" parent="sXvjfolYUnGrp_yOVfev-40" vertex="1">
          <mxGeometry y="130" width="160" height="8" as="geometry"/>
        </mxCell>
        <mxCell id="sXvjfolYUnGrp_yOVfev-43" value="+ toString() : string" style="text;strokeColor=none;fillColor=none;align=left;verticalAlign=top;spacingLeft=4;spacingRight=4;overflow=hidden;rotatable=0;points=[[0,0.5],[1,0.5]];portConstraint=eastwest;" parent="sXvjfolYUnGrp_yOVfev-40" vertex="1">
          <mxGeometry y="138" width="160" height="26" as="geometry"/>
        </mxCell>
        <mxCell id="sXvjfolYUnGrp_yOVfev-48" value="" style="text;strokeColor=none;fillColor=none;align=left;verticalAlign=middle;spacingTop=-1;spacingLeft=4;spacingRight=4;rotatable=0;labelPosition=right;points=[];portConstraint=eastwest;fontSize=11;" parent="1" vertex="1">
          <mxGeometry x="465" y="631" width="415" height="14" as="geometry"/>
        </mxCell>
        <mxCell id="sXvjfolYUnGrp_yOVfev-51" value="" style="line;strokeWidth=1;fillColor=none;align=left;verticalAlign=middle;spacingTop=-1;spacingLeft=3;spacingRight=3;rotatable=0;labelPosition=right;points=[];portConstraint=eastwest;fontSize=11;" parent="1" vertex="1">
          <mxGeometry x="465" y="634" width="415" height="8" as="geometry"/>
        </mxCell>
        <mxCell id="sXvjfolYUnGrp_yOVfev-52" value="LanguageService" style="swimlane;fontStyle=1;align=center;verticalAlign=top;childLayout=stackLayout;horizontal=1;startSize=26;horizontalStack=0;resizeParent=1;resizeParentMax=0;resizeLast=0;collapsible=1;marginBottom=0;" parent="1" vertex="1">
          <mxGeometry x="1274.5" y="770" width="160" height="34" as="geometry"/>
        </mxCell>
        <mxCell id="sXvjfolYUnGrp_yOVfev-53" value="" style="line;strokeWidth=1;fillColor=none;align=left;verticalAlign=middle;spacingTop=-1;spacingLeft=3;spacingRight=3;rotatable=0;labelPosition=right;points=[];portConstraint=eastwest;" parent="sXvjfolYUnGrp_yOVfev-52" vertex="1">
          <mxGeometry y="26" width="160" height="8" as="geometry"/>
        </mxCell>
        <mxCell id="sXvjfolYUnGrp_yOVfev-54" value="TextToSpeechService" style="swimlane;fontStyle=1;align=center;verticalAlign=top;childLayout=stackLayout;horizontal=1;startSize=26;horizontalStack=0;resizeParent=1;resizeParentMax=0;resizeLast=0;collapsible=1;marginBottom=0;" parent="1" vertex="1">
          <mxGeometry x="1460" y="722" width="160" height="34" as="geometry"/>
        </mxCell>
        <mxCell id="sXvjfolYUnGrp_yOVfev-55" value="" style="line;strokeWidth=1;fillColor=none;align=left;verticalAlign=middle;spacingTop=-1;spacingLeft=3;spacingRight=3;rotatable=0;labelPosition=right;points=[];portConstraint=eastwest;" parent="sXvjfolYUnGrp_yOVfev-54" vertex="1">
          <mxGeometry y="26" width="160" height="8" as="geometry"/>
        </mxCell>
        <mxCell id="sXvjfolYUnGrp_yOVfev-56" value="ServiceProvider" style="rounded=0;comic=1;strokeWidth=2;endArrow=blockThin;html=1;fontFamily=Comic Sans MS;fontStyle=1;entryX=0;entryY=0.5;entryDx=0;entryDy=0;exitX=1;exitY=0.5;exitDx=0;exitDy=0;" parent="1" source="1QQ3cwLplbujhVV3ZzxS-13" target="1QQ3cwLplbujhVV3ZzxS-1" edge="1">
          <mxGeometry x="0.366" y="14" width="50" height="50" relative="1" as="geometry">
            <mxPoint x="10" y="180" as="sourcePoint"/>
            <mxPoint x="50" y="170" as="targetPoint"/>
            <mxPoint as="offset"/>
          </mxGeometry>
        </mxCell>
        <mxCell id="sXvjfolYUnGrp_yOVfev-60" value="fragt alle Activities ab &lt;br&gt;schickt dann DataBuffer an&amp;nbsp;&lt;br&gt;Activities" style="text;html=1;align=center;verticalAlign=middle;resizable=0;points=[];;autosize=1;fontSize=12;" parent="1" vertex="1">
          <mxGeometry y="229" width="160" height="50" as="geometry"/>
        </mxCell>
        <mxCell id="sXvjfolYUnGrp_yOVfev-62" value="Jeweils dazu noch ein Interface für den ServiceProvider" style="text;html=1;align=center;verticalAlign=middle;resizable=0;points=[];;autosize=1;fontSize=12;" parent="1" vertex="1">
          <mxGeometry x="1320" y="809" width="310" height="20" as="geometry"/>
        </mxCell>
        <mxCell id="sXvjfolYUnGrp_yOVfev-64" value="IchBinDerServiceProvider_IchVerwalteAlleServiFuerModelSodassVMAuchZugriffDraufHat" style="swimlane;fontStyle=1;align=center;verticalAlign=top;childLayout=stackLayout;horizontal=1;startSize=26;horizontalStack=0;resizeParent=1;resizeParentMax=0;resizeLast=0;collapsible=1;marginBottom=0;strokeWidth=1;fontSize=12;" parent="1" vertex="1">
          <mxGeometry x="1300" y="941" width="550" height="86" as="geometry"/>
        </mxCell>
        <mxCell id="sXvjfolYUnGrp_yOVfev-65" value="+ field: type" style="text;strokeColor=none;fillColor=none;align=left;verticalAlign=top;spacingLeft=4;spacingRight=4;overflow=hidden;rotatable=0;points=[[0,0.5],[1,0.5]];portConstraint=eastwest;" parent="sXvjfolYUnGrp_yOVfev-64" vertex="1">
          <mxGeometry y="26" width="550" height="26" as="geometry"/>
        </mxCell>
        <mxCell id="sXvjfolYUnGrp_yOVfev-66" value="" style="line;strokeWidth=1;fillColor=none;align=left;verticalAlign=middle;spacingTop=-1;spacingLeft=3;spacingRight=3;rotatable=0;labelPosition=right;points=[];portConstraint=eastwest;" parent="sXvjfolYUnGrp_yOVfev-64" vertex="1">
          <mxGeometry y="52" width="550" height="8" as="geometry"/>
        </mxCell>
        <mxCell id="sXvjfolYUnGrp_yOVfev-67" value="+ method(type): type" style="text;strokeColor=none;fillColor=none;align=left;verticalAlign=top;spacingLeft=4;spacingRight=4;overflow=hidden;rotatable=0;points=[[0,0.5],[1,0.5]];portConstraint=eastwest;" parent="sXvjfolYUnGrp_yOVfev-64" vertex="1">
          <mxGeometry y="60" width="550" height="26" as="geometry"/>
        </mxCell>
        <mxCell id="sXvjfolYUnGrp_yOVfev-69" value="DataBuffer" style="swimlane;fontStyle=0;childLayout=stackLayout;horizontal=1;startSize=26;fillColor=none;horizontalStack=0;resizeParent=1;resizeParentMax=0;resizeLast=0;collapsible=1;marginBottom=0;strokeColor=#000000;strokeWidth=1;fontSize=12;" parent="1" vertex="1">
          <mxGeometry x="45" y="456" width="210" height="104" as="geometry"/>
        </mxCell>
        <mxCell id="sXvjfolYUnGrp_yOVfev-70" value="+ data : DataEntry[] {read-only}" style="text;strokeColor=none;fillColor=none;align=left;verticalAlign=top;spacingLeft=4;spacingRight=4;overflow=hidden;rotatable=0;points=[[0,0.5],[1,0.5]];portConstraint=eastwest;" parent="sXvjfolYUnGrp_yOVfev-69" vertex="1">
          <mxGeometry y="26" width="210" height="26" as="geometry"/>
        </mxCell>
        <mxCell id="sXvjfolYUnGrp_yOVfev-71" value="+ configurations : IConfigContainer" style="text;strokeColor=none;fillColor=none;align=left;verticalAlign=top;spacingLeft=4;spacingRight=4;overflow=hidden;rotatable=0;points=[[0,0.5],[1,0.5]];portConstraint=eastwest;" parent="sXvjfolYUnGrp_yOVfev-69" vertex="1">
          <mxGeometry y="52" width="210" height="26" as="geometry"/>
        </mxCell>
        <mxCell id="sXvjfolYUnGrp_yOVfev-72" value="+ size : int" style="text;strokeColor=none;fillColor=none;align=left;verticalAlign=top;spacingLeft=4;spacingRight=4;overflow=hidden;rotatable=0;points=[[0,0.5],[1,0.5]];portConstraint=eastwest;" parent="sXvjfolYUnGrp_yOVfev-69" vertex="1">
          <mxGeometry y="78" width="210" height="26" as="geometry"/>
        </mxCell>
        <mxCell id="sXvjfolYUnGrp_yOVfev-73" value="Bibliothek" style="shape=folder;fontStyle=1;spacingTop=10;tabWidth=40;tabHeight=14;tabPosition=left;html=1;strokeColor=#000000;strokeWidth=1;fontSize=12;" parent="1" vertex="1">
          <mxGeometry x="-1290.5" y="83" width="440" height="244" as="geometry"/>
        </mxCell>
        <mxCell id="sXvjfolYUnGrp_yOVfev-74" value="schickt Daten per DatenEventArgs" style="endArrow=open;endSize=12;dashed=1;html=1;fontSize=12;exitX=0;exitY=0;exitDx=440;exitDy=129;exitPerimeter=0;entryX=0;entryY=0.5;entryDx=0;entryDy=0;" parent="1" source="sXvjfolYUnGrp_yOVfev-73" target="sXvjfolYUnGrp_yOVfev-58" edge="1">
          <mxGeometry width="160" relative="1" as="geometry">
            <mxPoint x="-800" y="210" as="sourcePoint"/>
            <mxPoint x="-640" y="210" as="targetPoint"/>
          </mxGeometry>
        </mxCell>
        <mxCell id="iYhg7Z-iyzthH30S3QUp-1" value="&lt;div&gt;Vielleicht eher ein Dict speichern für Erweiterbarkeit?&lt;/div&gt;&lt;div&gt;Oder json { &quot;ligestützen&quot;: 4, &quot;situps&quot;: 5, ...}&lt;/div&gt;&lt;div&gt;Dann müssen wir die Namen nicht hardcoden&lt;br&gt;&lt;/div&gt;" style="text;html=1;strokeColor=none;fillColor=none;align=center;verticalAlign=middle;whiteSpace=wrap;rounded=0;" vertex="1" parent="1">
          <mxGeometry x="1870" y="376" width="320" height="114" as="geometry"/>
        </mxCell>
        <mxCell id="iYhg7Z-iyzthH30S3QUp-2" value="Was macht diese ---&amp;gt;" style="text;html=1;strokeColor=none;fillColor=none;align=center;verticalAlign=middle;whiteSpace=wrap;rounded=0;" vertex="1" parent="1">
          <mxGeometry x="325" y="647.5" width="140" height="20" as="geometry"/>
        </mxCell>
      </root>
    </mxGraphModel>
  </diagram>
</mxfile>
